<mxfile host="Electron" agent="Mozilla/5.0 (Windows NT 10.0; Win64; x64) AppleWebKit/537.36 (KHTML, like Gecko) draw.io/26.2.2 Chrome/134.0.6998.178 Electron/35.1.2 Safari/537.36" version="26.2.2">
  <diagram name="Страница — 1" id="IfdC2bCVslpUJ-sBs0E1">
    <mxGraphModel dx="3145" dy="2075" grid="1" gridSize="10" guides="1" tooltips="1" connect="1" arrows="1" fold="1" page="1" pageScale="1" pageWidth="827" pageHeight="1169" math="0" shadow="0">
      <root>
        <mxCell id="0" />
        <mxCell id="1" parent="0" />
        <mxCell id="zJV512reWy2KxUJ79HiW-5" value="MemoryInputStream" style="swimlane;fontStyle=1;align=center;verticalAlign=top;childLayout=stackLayout;horizontal=1;startSize=26;horizontalStack=0;resizeParent=1;resizeParentMax=0;resizeLast=0;collapsible=1;marginBottom=0;whiteSpace=wrap;html=1;" parent="1" vertex="1">
          <mxGeometry x="715" y="430" width="265" height="190" as="geometry" />
        </mxCell>
        <mxCell id="zJV512reWy2KxUJ79HiW-6" value="- memory: byte[]" style="text;strokeColor=none;fillColor=none;align=left;verticalAlign=top;spacingLeft=4;spacingRight=4;overflow=hidden;rotatable=0;points=[[0,0.5],[1,0.5]];portConstraint=eastwest;whiteSpace=wrap;html=1;" parent="zJV512reWy2KxUJ79HiW-5" vertex="1">
          <mxGeometry y="26" width="265" height="26" as="geometry" />
        </mxCell>
        <mxCell id="EVvFnJnLSGe2XGKSUcR7-66" value="- currentIndex: int = 0" style="text;strokeColor=none;fillColor=none;align=left;verticalAlign=top;spacingLeft=4;spacingRight=4;overflow=hidden;rotatable=0;points=[[0,0.5],[1,0.5]];portConstraint=eastwest;whiteSpace=wrap;html=1;" parent="zJV512reWy2KxUJ79HiW-5" vertex="1">
          <mxGeometry y="52" width="265" height="26" as="geometry" />
        </mxCell>
        <mxCell id="zJV512reWy2KxUJ79HiW-7" value="" style="line;strokeWidth=1;fillColor=none;align=left;verticalAlign=middle;spacingTop=-1;spacingLeft=3;spacingRight=3;rotatable=0;labelPosition=right;points=[];portConstraint=eastwest;strokeColor=inherit;" parent="zJV512reWy2KxUJ79HiW-5" vertex="1">
          <mxGeometry y="78" width="265" height="8" as="geometry" />
        </mxCell>
        <mxCell id="zJV512reWy2KxUJ79HiW-8" value="+ MemoryInputStream( memory: byte[] )" style="text;strokeColor=none;fillColor=none;align=left;verticalAlign=top;spacingLeft=4;spacingRight=4;overflow=hidden;rotatable=0;points=[[0,0.5],[1,0.5]];portConstraint=eastwest;whiteSpace=wrap;html=1;" parent="zJV512reWy2KxUJ79HiW-5" vertex="1">
          <mxGeometry y="86" width="265" height="26" as="geometry" />
        </mxCell>
        <mxCell id="EVvFnJnLSGe2XGKSUcR7-69" value="+ IsEof(): bool" style="text;strokeColor=none;fillColor=none;align=left;verticalAlign=top;spacingLeft=4;spacingRight=4;overflow=hidden;rotatable=0;points=[[0,0.5],[1,0.5]];portConstraint=eastwest;whiteSpace=wrap;html=1;" parent="zJV512reWy2KxUJ79HiW-5" vertex="1">
          <mxGeometry y="112" width="265" height="26" as="geometry" />
        </mxCell>
        <mxCell id="EVvFnJnLSGe2XGKSUcR7-68" value="+ ReadBlock( dstData: byte[], dataSize: int ): int" style="text;strokeColor=none;fillColor=none;align=left;verticalAlign=top;spacingLeft=4;spacingRight=4;overflow=hidden;rotatable=0;points=[[0,0.5],[1,0.5]];portConstraint=eastwest;whiteSpace=wrap;html=1;" parent="zJV512reWy2KxUJ79HiW-5" vertex="1">
          <mxGeometry y="138" width="265" height="26" as="geometry" />
        </mxCell>
        <mxCell id="EVvFnJnLSGe2XGKSUcR7-67" value="+ ReadByte(): byte" style="text;strokeColor=none;fillColor=none;align=left;verticalAlign=top;spacingLeft=4;spacingRight=4;overflow=hidden;rotatable=0;points=[[0,0.5],[1,0.5]];portConstraint=eastwest;whiteSpace=wrap;html=1;" parent="zJV512reWy2KxUJ79HiW-5" vertex="1">
          <mxGeometry y="164" width="265" height="26" as="geometry" />
        </mxCell>
        <mxCell id="zJV512reWy2KxUJ79HiW-9" value="FileInputStream" style="swimlane;fontStyle=1;align=center;verticalAlign=top;childLayout=stackLayout;horizontal=1;startSize=26;horizontalStack=0;resizeParent=1;resizeParentMax=0;resizeLast=0;collapsible=1;marginBottom=0;whiteSpace=wrap;html=1;" parent="1" vertex="1">
          <mxGeometry x="720" y="212" width="260" height="190" as="geometry" />
        </mxCell>
        <mxCell id="zJV512reWy2KxUJ79HiW-10" value="- _buffer: byte[] = []" style="text;strokeColor=none;fillColor=none;align=left;verticalAlign=top;spacingLeft=4;spacingRight=4;overflow=hidden;rotatable=0;points=[[0,0.5],[1,0.5]];portConstraint=eastwest;whiteSpace=wrap;html=1;" parent="zJV512reWy2KxUJ79HiW-9" vertex="1">
          <mxGeometry y="26" width="260" height="26" as="geometry" />
        </mxCell>
        <mxCell id="EVvFnJnLSGe2XGKSUcR7-61" value="- _position: int" style="text;strokeColor=none;fillColor=none;align=left;verticalAlign=top;spacingLeft=4;spacingRight=4;overflow=hidden;rotatable=0;points=[[0,0.5],[1,0.5]];portConstraint=eastwest;whiteSpace=wrap;html=1;" parent="zJV512reWy2KxUJ79HiW-9" vertex="1">
          <mxGeometry y="52" width="260" height="26" as="geometry" />
        </mxCell>
        <mxCell id="zJV512reWy2KxUJ79HiW-11" value="" style="line;strokeWidth=1;fillColor=none;align=left;verticalAlign=middle;spacingTop=-1;spacingLeft=3;spacingRight=3;rotatable=0;labelPosition=right;points=[];portConstraint=eastwest;strokeColor=inherit;" parent="zJV512reWy2KxUJ79HiW-9" vertex="1">
          <mxGeometry y="78" width="260" height="8" as="geometry" />
        </mxCell>
        <mxCell id="zJV512reWy2KxUJ79HiW-12" value="+ FileInputStream( path: string )" style="text;strokeColor=none;fillColor=none;align=left;verticalAlign=top;spacingLeft=4;spacingRight=4;overflow=hidden;rotatable=0;points=[[0,0.5],[1,0.5]];portConstraint=eastwest;whiteSpace=wrap;html=1;" parent="zJV512reWy2KxUJ79HiW-9" vertex="1">
          <mxGeometry y="86" width="260" height="26" as="geometry" />
        </mxCell>
        <mxCell id="EVvFnJnLSGe2XGKSUcR7-64" value="+ IsEof(): bool" style="text;strokeColor=none;fillColor=none;align=left;verticalAlign=top;spacingLeft=4;spacingRight=4;overflow=hidden;rotatable=0;points=[[0,0.5],[1,0.5]];portConstraint=eastwest;whiteSpace=wrap;html=1;" parent="zJV512reWy2KxUJ79HiW-9" vertex="1">
          <mxGeometry y="112" width="260" height="26" as="geometry" />
        </mxCell>
        <mxCell id="EVvFnJnLSGe2XGKSUcR7-63" value="+ ReadBlock( dstData: byte[], dataSize: int ): int" style="text;strokeColor=none;fillColor=none;align=left;verticalAlign=top;spacingLeft=4;spacingRight=4;overflow=hidden;rotatable=0;points=[[0,0.5],[1,0.5]];portConstraint=eastwest;whiteSpace=wrap;html=1;" parent="zJV512reWy2KxUJ79HiW-9" vertex="1">
          <mxGeometry y="138" width="260" height="26" as="geometry" />
        </mxCell>
        <mxCell id="EVvFnJnLSGe2XGKSUcR7-62" value="+ ReadByte(): byte" style="text;strokeColor=none;fillColor=none;align=left;verticalAlign=top;spacingLeft=4;spacingRight=4;overflow=hidden;rotatable=0;points=[[0,0.5],[1,0.5]];portConstraint=eastwest;whiteSpace=wrap;html=1;" parent="zJV512reWy2KxUJ79HiW-9" vertex="1">
          <mxGeometry y="164" width="260" height="26" as="geometry" />
        </mxCell>
        <mxCell id="zJV512reWy2KxUJ79HiW-13" value="" style="endArrow=block;dashed=1;endFill=0;endSize=12;html=1;rounded=0;entryX=0.993;entryY=0.64;entryDx=0;entryDy=0;exitX=-0.012;exitY=0.06;exitDx=0;exitDy=0;entryPerimeter=0;exitPerimeter=0;" parent="1" source="EVvFnJnLSGe2XGKSUcR7-64" target="zJV512reWy2KxUJ79HiW-15" edge="1">
          <mxGeometry width="160" relative="1" as="geometry">
            <mxPoint x="280" y="290" as="sourcePoint" />
            <mxPoint x="414" y="253" as="targetPoint" />
          </mxGeometry>
        </mxCell>
        <mxCell id="zJV512reWy2KxUJ79HiW-14" value="" style="endArrow=block;dashed=1;endFill=0;endSize=12;html=1;rounded=0;entryX=0.993;entryY=0.88;entryDx=0;entryDy=0;exitX=0;exitY=0.5;exitDx=0;exitDy=0;entryPerimeter=0;" parent="1" source="zJV512reWy2KxUJ79HiW-6" target="zJV512reWy2KxUJ79HiW-15" edge="1">
          <mxGeometry width="160" relative="1" as="geometry">
            <mxPoint x="650" y="271.25" as="sourcePoint" />
            <mxPoint x="574" y="253" as="targetPoint" />
          </mxGeometry>
        </mxCell>
        <mxCell id="zJV512reWy2KxUJ79HiW-15" value="&lt;p style=&quot;margin:0px;margin-top:4px;text-align:center;&quot;&gt;&lt;i&gt;&amp;lt;&amp;lt;Interface&amp;gt;&amp;gt;&lt;/i&gt;&lt;br&gt;&lt;b&gt;IInputStream&lt;/b&gt;&lt;/p&gt;&lt;hr size=&quot;1&quot; style=&quot;border-style:solid;&quot;&gt;&lt;p style=&quot;margin:0px;margin-left:4px;&quot;&gt;IsEof(): bool&lt;/p&gt;&lt;p style=&quot;margin:0px;margin-left:4px;&quot;&gt;ReadByte(): byte&lt;/p&gt;&lt;p style=&quot;margin:0px;margin-left:4px;&quot;&gt;ReadBlock(dstData: byte[], dataSize: int): int&lt;/p&gt;" style="verticalAlign=top;align=left;overflow=fill;html=1;whiteSpace=wrap;" parent="1" vertex="1">
          <mxGeometry x="318" y="402" width="272" height="100" as="geometry" />
        </mxCell>
        <mxCell id="zJV512reWy2KxUJ79HiW-17" value="&lt;p style=&quot;margin:0px;margin-top:4px;text-align:center;&quot;&gt;&lt;i&gt;&amp;lt;&amp;lt;Interface&amp;gt;&amp;gt;&lt;/i&gt;&lt;br&gt;&lt;b&gt;IOutputStream&lt;/b&gt;&lt;/p&gt;&lt;hr size=&quot;1&quot; style=&quot;border-style:solid;&quot;&gt;&lt;p style=&quot;margin:0px;margin-left:4px;&quot;&gt;&lt;span style=&quot;background-color: transparent; color: light-dark(rgb(0, 0, 0), rgb(255, 255, 255));&quot;&gt;WriteByte(&lt;/span&gt;&lt;span style=&quot;background-color: transparent;&quot;&gt;data:&amp;nbsp;&lt;/span&gt;&lt;span style=&quot;background-color: transparent; color: light-dark(rgb(0, 0, 0), rgb(255, 255, 255));&quot;&gt;byte&lt;/span&gt;&lt;span style=&quot;background-color: transparent; color: light-dark(rgb(0, 0, 0), rgb(255, 255, 255));&quot;&gt;)&lt;/span&gt;&lt;/p&gt;&lt;p style=&quot;margin:0px;margin-left:4px;&quot;&gt;&lt;span style=&quot;background-color: transparent; color: light-dark(rgb(0, 0, 0), rgb(255, 255, 255));&quot;&gt;Write&lt;/span&gt;Block(srcData: byte[], dataSize: int)&lt;/p&gt;" style="verticalAlign=top;align=left;overflow=fill;html=1;whiteSpace=wrap;" parent="1" vertex="1">
          <mxGeometry x="358" y="-64" width="242" height="84" as="geometry" />
        </mxCell>
        <mxCell id="zJV512reWy2KxUJ79HiW-18" value="" style="endArrow=block;dashed=1;endFill=0;endSize=12;html=1;rounded=0;entryX=1;entryY=0.75;entryDx=0;entryDy=0;" parent="1" source="zJV512reWy2KxUJ79HiW-20" target="zJV512reWy2KxUJ79HiW-17" edge="1">
          <mxGeometry width="160" relative="1" as="geometry">
            <mxPoint x="900" y="280" as="sourcePoint" />
            <mxPoint x="946" y="260" as="targetPoint" />
          </mxGeometry>
        </mxCell>
        <mxCell id="zJV512reWy2KxUJ79HiW-19" value="" style="endArrow=block;dashed=1;endFill=0;endSize=12;html=1;rounded=0;entryX=0.75;entryY=0;entryDx=0;entryDy=0;" parent="1" source="zJV512reWy2KxUJ79HiW-25" target="zJV512reWy2KxUJ79HiW-17" edge="1">
          <mxGeometry width="160" relative="1" as="geometry">
            <mxPoint x="1240" y="280" as="sourcePoint" />
            <mxPoint x="1255" y="220" as="targetPoint" />
          </mxGeometry>
        </mxCell>
        <mxCell id="zJV512reWy2KxUJ79HiW-20" value="FileOutputStream" style="swimlane;fontStyle=1;align=center;verticalAlign=top;childLayout=stackLayout;horizontal=1;startSize=26;horizontalStack=0;resizeParent=1;resizeParentMax=0;resizeLast=0;collapsible=1;marginBottom=0;whiteSpace=wrap;html=1;" parent="1" vertex="1">
          <mxGeometry x="710" y="-150" width="250" height="190" as="geometry" />
        </mxCell>
        <mxCell id="zJV512reWy2KxUJ79HiW-21" value="&lt;div style=&quot;forced-color-adjust: none; color: rgb(0, 0, 0); font-family: Helvetica; font-size: 12px; font-style: normal; font-variant-ligatures: normal; font-variant-caps: normal; font-weight: 400; letter-spacing: normal; orphans: 2; text-align: center; text-indent: 0px; text-transform: none; widows: 2; word-spacing: 0px; -webkit-text-stroke-width: 0px; white-space: nowrap; text-decoration-thickness: initial; text-decoration-style: initial; text-decoration-color: initial;&quot;&gt;&lt;span style=&quot;background-color: light-dark(#ffffff, var(--ge-dark-color, #121212));&quot;&gt;-&amp;nbsp; _file: FileStream&lt;/span&gt;&lt;/div&gt;&lt;span style=&quot;background-color: light-dark(#ffffff, var(--ge-dark-color, #121212));&quot;&gt;&lt;br class=&quot;Apple-interchange-newline&quot;&gt;&lt;/span&gt;&lt;div&gt;&lt;br&gt;&lt;/div&gt;" style="text;strokeColor=none;fillColor=none;align=left;verticalAlign=top;spacingLeft=4;spacingRight=4;overflow=hidden;rotatable=0;points=[[0,0.5],[1,0.5]];portConstraint=eastwest;whiteSpace=wrap;html=1;" parent="zJV512reWy2KxUJ79HiW-20" vertex="1">
          <mxGeometry y="26" width="250" height="26" as="geometry" />
        </mxCell>
        <mxCell id="EVvFnJnLSGe2XGKSUcR7-55" value="&lt;div style=&quot;forced-color-adjust: none; color: rgb(0, 0, 0); font-family: Helvetica; font-size: 12px; font-style: normal; font-variant-ligatures: normal; font-variant-caps: normal; font-weight: 400; letter-spacing: normal; orphans: 2; text-align: center; text-indent: 0px; text-transform: none; widows: 2; word-spacing: 0px; -webkit-text-stroke-width: 0px; white-space: nowrap; text-decoration-thickness: initial; text-decoration-style: initial; text-decoration-color: initial;&quot;&gt;&lt;span style=&quot;background-color: light-dark(#ffffff, var(--ge-dark-color, #121212));&quot;&gt;- _disposed: bool&lt;/span&gt;&lt;/div&gt;" style="text;strokeColor=none;fillColor=none;align=left;verticalAlign=top;spacingLeft=4;spacingRight=4;overflow=hidden;rotatable=0;points=[[0,0.5],[1,0.5]];portConstraint=eastwest;whiteSpace=wrap;html=1;" parent="zJV512reWy2KxUJ79HiW-20" vertex="1">
          <mxGeometry y="52" width="250" height="26" as="geometry" />
        </mxCell>
        <mxCell id="zJV512reWy2KxUJ79HiW-22" value="" style="line;strokeWidth=1;fillColor=none;align=left;verticalAlign=middle;spacingTop=-1;spacingLeft=3;spacingRight=3;rotatable=0;labelPosition=right;points=[];portConstraint=eastwest;strokeColor=inherit;" parent="zJV512reWy2KxUJ79HiW-20" vertex="1">
          <mxGeometry y="78" width="250" height="8" as="geometry" />
        </mxCell>
        <mxCell id="zJV512reWy2KxUJ79HiW-23" value="&lt;span style=&quot;text-align: center; text-wrap-mode: nowrap;&quot;&gt;+ FileOutputStream( path: string )&lt;/span&gt;" style="text;strokeColor=none;fillColor=none;align=left;verticalAlign=top;spacingLeft=4;spacingRight=4;overflow=hidden;rotatable=0;points=[[0,0.5],[1,0.5]];portConstraint=eastwest;whiteSpace=wrap;html=1;" parent="zJV512reWy2KxUJ79HiW-20" vertex="1">
          <mxGeometry y="86" width="250" height="26" as="geometry" />
        </mxCell>
        <mxCell id="EVvFnJnLSGe2XGKSUcR7-58" value="&lt;div style=&quot;text-align: center; text-wrap-mode: nowrap;&quot;&gt;+ WriteBlock( srcData: byte[], dataSize: int ): void&lt;/div&gt;&lt;div&gt;&lt;br&gt;&lt;/div&gt;" style="text;strokeColor=none;fillColor=none;align=left;verticalAlign=top;spacingLeft=4;spacingRight=4;overflow=hidden;rotatable=0;points=[[0,0.5],[1,0.5]];portConstraint=eastwest;whiteSpace=wrap;html=1;" parent="zJV512reWy2KxUJ79HiW-20" vertex="1">
          <mxGeometry y="112" width="250" height="26" as="geometry" />
        </mxCell>
        <mxCell id="EVvFnJnLSGe2XGKSUcR7-57" value="&lt;div style=&quot;text-align: center; text-wrap-mode: nowrap;&quot;&gt;+ WriteByte( data: byte ): void&lt;/div&gt;&lt;div&gt;&lt;br&gt;&lt;/div&gt;" style="text;strokeColor=none;fillColor=none;align=left;verticalAlign=top;spacingLeft=4;spacingRight=4;overflow=hidden;rotatable=0;points=[[0,0.5],[1,0.5]];portConstraint=eastwest;whiteSpace=wrap;html=1;" parent="zJV512reWy2KxUJ79HiW-20" vertex="1">
          <mxGeometry y="138" width="250" height="26" as="geometry" />
        </mxCell>
        <mxCell id="EVvFnJnLSGe2XGKSUcR7-56" value="&lt;div style=&quot;text-align: center; text-wrap-mode: nowrap;&quot;&gt;+ Dispose(): void&lt;/div&gt;&lt;div&gt;&lt;br&gt;&lt;/div&gt;" style="text;strokeColor=none;fillColor=none;align=left;verticalAlign=top;spacingLeft=4;spacingRight=4;overflow=hidden;rotatable=0;points=[[0,0.5],[1,0.5]];portConstraint=eastwest;whiteSpace=wrap;html=1;" parent="zJV512reWy2KxUJ79HiW-20" vertex="1">
          <mxGeometry y="164" width="250" height="26" as="geometry" />
        </mxCell>
        <mxCell id="zJV512reWy2KxUJ79HiW-25" value="MemoryOutputStream" style="swimlane;fontStyle=1;align=center;verticalAlign=top;childLayout=stackLayout;horizontal=1;startSize=26;horizontalStack=0;resizeParent=1;resizeParentMax=0;resizeLast=0;collapsible=1;marginBottom=0;whiteSpace=wrap;html=1;" parent="1" vertex="1">
          <mxGeometry x="540" y="-440" width="280" height="216" as="geometry" />
        </mxCell>
        <mxCell id="zJV512reWy2KxUJ79HiW-26" value="&lt;span style=&quot;text-align: center; text-wrap-mode: nowrap;&quot;&gt;- _buffer: byte[]&lt;/span&gt;" style="text;strokeColor=none;fillColor=none;align=left;verticalAlign=top;spacingLeft=4;spacingRight=4;overflow=hidden;rotatable=0;points=[[0,0.5],[1,0.5]];portConstraint=eastwest;whiteSpace=wrap;html=1;" parent="zJV512reWy2KxUJ79HiW-25" vertex="1">
          <mxGeometry y="26" width="280" height="26" as="geometry" />
        </mxCell>
        <mxCell id="EVvFnJnLSGe2XGKSUcR7-50" value="&lt;span style=&quot;background-color: light-dark(#ffffff, var(--ge-dark-color, #121212));&quot;&gt;&lt;span style=&quot;color: rgb(0, 0, 0); font-family: Helvetica; font-size: 12px; font-style: normal; font-variant-ligatures: normal; font-variant-caps: normal; font-weight: 400; letter-spacing: normal; orphans: 2; text-align: center; text-indent: 0px; text-transform: none; widows: 2; word-spacing: 0px; -webkit-text-stroke-width: 0px; white-space: nowrap; text-decoration-thickness: initial; text-decoration-style: initial; text-decoration-color: initial; float: none; display: inline !important;&quot;&gt;- _position: int = 0&lt;/span&gt;&lt;br style=&quot;forced-color-adjust: none; color: rgb(0, 0, 0); font-family: Helvetica; font-size: 12px; font-style: normal; font-variant-ligatures: normal; font-variant-caps: normal; font-weight: 400; letter-spacing: normal; orphans: 2; text-align: center; text-indent: 0px; text-transform: none; widows: 2; word-spacing: 0px; -webkit-text-stroke-width: 0px; white-space: nowrap; text-decoration-thickness: initial; text-decoration-style: initial; text-decoration-color: initial;&quot;&gt;&lt;/span&gt;&lt;div&gt;&lt;br&gt;&lt;/div&gt;" style="text;strokeColor=none;fillColor=none;align=left;verticalAlign=top;spacingLeft=4;spacingRight=4;overflow=hidden;rotatable=0;points=[[0,0.5],[1,0.5]];portConstraint=eastwest;whiteSpace=wrap;html=1;" parent="zJV512reWy2KxUJ79HiW-25" vertex="1">
          <mxGeometry y="52" width="280" height="26" as="geometry" />
        </mxCell>
        <mxCell id="EVvFnJnLSGe2XGKSUcR7-49" value="&lt;span style=&quot;text-align: center; text-wrap-mode: nowrap;&quot;&gt;- _disposed: bool = false&lt;/span&gt;" style="text;strokeColor=none;fillColor=none;align=left;verticalAlign=top;spacingLeft=4;spacingRight=4;overflow=hidden;rotatable=0;points=[[0,0.5],[1,0.5]];portConstraint=eastwest;whiteSpace=wrap;html=1;" parent="zJV512reWy2KxUJ79HiW-25" vertex="1">
          <mxGeometry y="78" width="280" height="26" as="geometry" />
        </mxCell>
        <mxCell id="zJV512reWy2KxUJ79HiW-27" value="" style="line;strokeWidth=1;fillColor=none;align=left;verticalAlign=middle;spacingTop=-1;spacingLeft=3;spacingRight=3;rotatable=0;labelPosition=right;points=[];portConstraint=eastwest;strokeColor=inherit;" parent="zJV512reWy2KxUJ79HiW-25" vertex="1">
          <mxGeometry y="104" width="280" height="8" as="geometry" />
        </mxCell>
        <mxCell id="zJV512reWy2KxUJ79HiW-28" value="&lt;span style=&quot;background-color: light-dark(#ffffff, var(--ge-dark-color, #121212));&quot;&gt;&lt;span style=&quot;color: rgb(0, 0, 0); font-family: Helvetica; font-size: 12px; font-style: normal; font-variant-ligatures: normal; font-variant-caps: normal; font-weight: 400; letter-spacing: normal; orphans: 2; text-align: center; text-indent: 0px; text-transform: none; widows: 2; word-spacing: 0px; -webkit-text-stroke-width: 0px; white-space: nowrap; text-decoration-thickness: initial; text-decoration-style: initial; text-decoration-color: initial; float: none; display: inline !important;&quot;&gt;+ MemoryOutputStream( buffer: byte[] )&lt;/span&gt;&lt;br style=&quot;forced-color-adjust: none; color: rgb(0, 0, 0); font-family: Helvetica; font-size: 12px; font-style: normal; font-variant-ligatures: normal; font-variant-caps: normal; font-weight: 400; letter-spacing: normal; orphans: 2; text-align: center; text-indent: 0px; text-transform: none; widows: 2; word-spacing: 0px; -webkit-text-stroke-width: 0px; white-space: nowrap; text-decoration-thickness: initial; text-decoration-style: initial; text-decoration-color: initial;&quot;&gt;&lt;/span&gt;&lt;div&gt;&lt;br&gt;&lt;/div&gt;" style="text;strokeColor=none;fillColor=none;align=left;verticalAlign=top;spacingLeft=4;spacingRight=4;overflow=hidden;rotatable=0;points=[[0,0.5],[1,0.5]];portConstraint=eastwest;whiteSpace=wrap;html=1;" parent="zJV512reWy2KxUJ79HiW-25" vertex="1">
          <mxGeometry y="112" width="280" height="26" as="geometry" />
        </mxCell>
        <mxCell id="EVvFnJnLSGe2XGKSUcR7-53" value="&lt;span style=&quot;background-color: light-dark(#ffffff, var(--ge-dark-color, #121212));&quot;&gt;&lt;span style=&quot;color: rgb(0, 0, 0); font-family: Helvetica; font-size: 12px; font-style: normal; font-variant-ligatures: normal; font-variant-caps: normal; font-weight: 400; letter-spacing: normal; orphans: 2; text-align: center; text-indent: 0px; text-transform: none; widows: 2; word-spacing: 0px; -webkit-text-stroke-width: 0px; white-space: nowrap; text-decoration-thickness: initial; text-decoration-style: initial; text-decoration-color: initial; float: none; display: inline !important;&quot;&gt;+ Dispose(): void&lt;/span&gt;&lt;br style=&quot;forced-color-adjust: none; color: rgb(0, 0, 0); font-family: Helvetica; font-size: 12px; font-style: normal; font-variant-ligatures: normal; font-variant-caps: normal; font-weight: 400; letter-spacing: normal; orphans: 2; text-align: center; text-indent: 0px; text-transform: none; widows: 2; word-spacing: 0px; -webkit-text-stroke-width: 0px; white-space: nowrap; text-decoration-thickness: initial; text-decoration-style: initial; text-decoration-color: initial;&quot;&gt;&lt;/span&gt;&lt;div&gt;&lt;br&gt;&lt;/div&gt;" style="text;strokeColor=none;fillColor=none;align=left;verticalAlign=top;spacingLeft=4;spacingRight=4;overflow=hidden;rotatable=0;points=[[0,0.5],[1,0.5]];portConstraint=eastwest;whiteSpace=wrap;html=1;" parent="zJV512reWy2KxUJ79HiW-25" vertex="1">
          <mxGeometry y="138" width="280" height="26" as="geometry" />
        </mxCell>
        <mxCell id="EVvFnJnLSGe2XGKSUcR7-52" value="&lt;span style=&quot;background-color: light-dark(#ffffff, var(--ge-dark-color, #121212));&quot;&gt;&lt;span style=&quot;color: rgb(0, 0, 0); font-family: Helvetica; font-size: 12px; font-style: normal; font-variant-ligatures: normal; font-variant-caps: normal; font-weight: 400; letter-spacing: normal; orphans: 2; text-align: center; text-indent: 0px; text-transform: none; widows: 2; word-spacing: 0px; -webkit-text-stroke-width: 0px; white-space: nowrap; text-decoration-thickness: initial; text-decoration-style: initial; text-decoration-color: initial; float: none; display: inline !important;&quot;&gt;+ WriteBlock( srcData: byte[], dataSize: int ): void&lt;/span&gt;&lt;br style=&quot;forced-color-adjust: none; color: rgb(0, 0, 0); font-family: Helvetica; font-size: 12px; font-style: normal; font-variant-ligatures: normal; font-variant-caps: normal; font-weight: 400; letter-spacing: normal; orphans: 2; text-align: center; text-indent: 0px; text-transform: none; widows: 2; word-spacing: 0px; -webkit-text-stroke-width: 0px; white-space: nowrap; text-decoration-thickness: initial; text-decoration-style: initial; text-decoration-color: initial;&quot;&gt;&lt;/span&gt;&lt;div&gt;&lt;br&gt;&lt;/div&gt;" style="text;strokeColor=none;fillColor=none;align=left;verticalAlign=top;spacingLeft=4;spacingRight=4;overflow=hidden;rotatable=0;points=[[0,0.5],[1,0.5]];portConstraint=eastwest;whiteSpace=wrap;html=1;" parent="zJV512reWy2KxUJ79HiW-25" vertex="1">
          <mxGeometry y="164" width="280" height="26" as="geometry" />
        </mxCell>
        <mxCell id="EVvFnJnLSGe2XGKSUcR7-51" value="&lt;span style=&quot;color: rgb(0, 0, 0); font-family: Helvetica; font-size: 12px; font-style: normal; font-variant-ligatures: normal; font-variant-caps: normal; font-weight: 400; letter-spacing: normal; orphans: 2; text-align: center; text-indent: 0px; text-transform: none; widows: 2; word-spacing: 0px; -webkit-text-stroke-width: 0px; white-space: nowrap; text-decoration-thickness: initial; text-decoration-style: initial; text-decoration-color: initial; float: none; background-color: light-dark(#ffffff, var(--ge-dark-color, #121212)); display: inline !important;&quot;&gt;+ WriteByte( data: byte ): void&lt;/span&gt;&lt;div&gt;&lt;br&gt;&lt;/div&gt;" style="text;strokeColor=none;fillColor=none;align=left;verticalAlign=top;spacingLeft=4;spacingRight=4;overflow=hidden;rotatable=0;points=[[0,0.5],[1,0.5]];portConstraint=eastwest;whiteSpace=wrap;html=1;" parent="zJV512reWy2KxUJ79HiW-25" vertex="1">
          <mxGeometry y="190" width="280" height="26" as="geometry" />
        </mxCell>
        <mxCell id="zJV512reWy2KxUJ79HiW-30" value="OutputStreamDecorator" style="swimlane;fontStyle=1;align=center;verticalAlign=top;childLayout=stackLayout;horizontal=1;startSize=26;horizontalStack=0;resizeParent=1;resizeParentMax=0;resizeLast=0;collapsible=1;marginBottom=0;whiteSpace=wrap;html=1;" parent="1" vertex="1">
          <mxGeometry x="-140" y="-370" width="330" height="180" as="geometry" />
        </mxCell>
        <mxCell id="zJV512reWy2KxUJ79HiW-31" value="# _outputStream: IOutputStream&amp;nbsp;" style="text;strokeColor=none;fillColor=none;align=left;verticalAlign=top;spacingLeft=4;spacingRight=4;overflow=hidden;rotatable=0;points=[[0,0.5],[1,0.5]];portConstraint=eastwest;whiteSpace=wrap;html=1;" parent="zJV512reWy2KxUJ79HiW-30" vertex="1">
          <mxGeometry y="26" width="330" height="26" as="geometry" />
        </mxCell>
        <mxCell id="zJV512reWy2KxUJ79HiW-32" value="" style="line;strokeWidth=1;fillColor=none;align=left;verticalAlign=middle;spacingTop=-1;spacingLeft=3;spacingRight=3;rotatable=0;labelPosition=right;points=[];portConstraint=eastwest;strokeColor=inherit;" parent="zJV512reWy2KxUJ79HiW-30" vertex="1">
          <mxGeometry y="52" width="330" height="8" as="geometry" />
        </mxCell>
        <mxCell id="zJV512reWy2KxUJ79HiW-33" value="+ OutputStreamDecorator( outputStream: IOutputStream)" style="text;strokeColor=none;fillColor=none;align=left;verticalAlign=top;spacingLeft=4;spacingRight=4;overflow=hidden;rotatable=0;points=[[0,0.5],[1,0.5]];portConstraint=eastwest;whiteSpace=wrap;html=1;" parent="zJV512reWy2KxUJ79HiW-30" vertex="1">
          <mxGeometry y="60" width="330" height="30" as="geometry" />
        </mxCell>
        <mxCell id="EVvFnJnLSGe2XGKSUcR7-24" value="+ Dispose()" style="text;strokeColor=none;fillColor=none;align=left;verticalAlign=top;spacingLeft=4;spacingRight=4;overflow=hidden;rotatable=0;points=[[0,0.5],[1,0.5]];portConstraint=eastwest;whiteSpace=wrap;html=1;" parent="zJV512reWy2KxUJ79HiW-30" vertex="1">
          <mxGeometry y="90" width="330" height="30" as="geometry" />
        </mxCell>
        <mxCell id="EVvFnJnLSGe2XGKSUcR7-23" value="+ WriteBlock( srcData: byte[], dataSize: int) {abstract}" style="text;strokeColor=none;fillColor=none;align=left;verticalAlign=top;spacingLeft=4;spacingRight=4;overflow=hidden;rotatable=0;points=[[0,0.5],[1,0.5]];portConstraint=eastwest;whiteSpace=wrap;html=1;" parent="zJV512reWy2KxUJ79HiW-30" vertex="1">
          <mxGeometry y="120" width="330" height="30" as="geometry" />
        </mxCell>
        <mxCell id="EVvFnJnLSGe2XGKSUcR7-22" value="+ WriteByte( data: byte&amp;nbsp;) {abstract}" style="text;strokeColor=none;fillColor=none;align=left;verticalAlign=top;spacingLeft=4;spacingRight=4;overflow=hidden;rotatable=0;points=[[0,0.5],[1,0.5]];portConstraint=eastwest;whiteSpace=wrap;html=1;" parent="zJV512reWy2KxUJ79HiW-30" vertex="1">
          <mxGeometry y="150" width="330" height="30" as="geometry" />
        </mxCell>
        <mxCell id="zJV512reWy2KxUJ79HiW-34" value="InputStreamDecorator" style="swimlane;fontStyle=1;align=center;verticalAlign=top;childLayout=stackLayout;horizontal=1;startSize=26;horizontalStack=0;resizeParent=1;resizeParentMax=0;resizeLast=0;collapsible=1;marginBottom=0;whiteSpace=wrap;html=1;" parent="1" vertex="1">
          <mxGeometry x="-160" y="456" width="330" height="164" as="geometry" />
        </mxCell>
        <mxCell id="zJV512reWy2KxUJ79HiW-35" value="&lt;div style=&quot;forced-color-adjust: none; color: rgb(0, 0, 0); font-family: Helvetica; font-size: 12px; font-style: normal; font-variant-ligatures: normal; font-variant-caps: normal; font-weight: 400; letter-spacing: normal; orphans: 2; text-align: center; text-indent: 0px; text-transform: none; widows: 2; word-spacing: 0px; -webkit-text-stroke-width: 0px; white-space: nowrap; text-decoration-thickness: initial; text-decoration-style: initial; text-decoration-color: initial;&quot;&gt;&lt;span style=&quot;background-color: light-dark(#ffffff, var(--ge-dark-color, #121212));&quot;&gt;# _inputStream: IInputStream&lt;/span&gt;&lt;/div&gt;&lt;span style=&quot;background-color: light-dark(#ffffff, var(--ge-dark-color, #121212));&quot;&gt;&lt;br class=&quot;Apple-interchange-newline&quot;&gt;&lt;/span&gt;&lt;div&gt;&lt;br&gt;&lt;/div&gt;" style="text;strokeColor=none;fillColor=none;align=left;verticalAlign=top;spacingLeft=4;spacingRight=4;overflow=hidden;rotatable=0;points=[[0,0.5],[1,0.5]];portConstraint=eastwest;whiteSpace=wrap;html=1;" parent="zJV512reWy2KxUJ79HiW-34" vertex="1">
          <mxGeometry y="26" width="330" height="26" as="geometry" />
        </mxCell>
        <mxCell id="zJV512reWy2KxUJ79HiW-36" value="" style="line;strokeWidth=1;fillColor=none;align=left;verticalAlign=middle;spacingTop=-1;spacingLeft=3;spacingRight=3;rotatable=0;labelPosition=right;points=[];portConstraint=eastwest;strokeColor=inherit;" parent="zJV512reWy2KxUJ79HiW-34" vertex="1">
          <mxGeometry y="52" width="330" height="8" as="geometry" />
        </mxCell>
        <mxCell id="zJV512reWy2KxUJ79HiW-37" value="&lt;span style=&quot;text-align: center; text-wrap-mode: nowrap;&quot;&gt;+ InputStreamDecorator( inputStream: IInputStream )&lt;/span&gt;" style="text;strokeColor=none;fillColor=none;align=left;verticalAlign=top;spacingLeft=4;spacingRight=4;overflow=hidden;rotatable=0;points=[[0,0.5],[1,0.5]];portConstraint=eastwest;whiteSpace=wrap;html=1;" parent="zJV512reWy2KxUJ79HiW-34" vertex="1">
          <mxGeometry y="60" width="330" height="26" as="geometry" />
        </mxCell>
        <mxCell id="EVvFnJnLSGe2XGKSUcR7-45" value="&lt;div style=&quot;forced-color-adjust: none; color: rgb(0, 0, 0); font-family: Helvetica; font-size: 12px; font-style: normal; font-variant-ligatures: normal; font-variant-caps: normal; font-weight: 400; letter-spacing: normal; orphans: 2; text-align: center; text-indent: 0px; text-transform: none; widows: 2; word-spacing: 0px; -webkit-text-stroke-width: 0px; white-space: nowrap; text-decoration-thickness: initial; text-decoration-style: initial; text-decoration-color: initial;&quot;&gt;&lt;span style=&quot;background-color: light-dark(#ffffff, var(--ge-dark-color, #121212));&quot;&gt;+ IsEof(): bool&lt;/span&gt;&lt;/div&gt;&lt;span style=&quot;background-color: light-dark(#ffffff, var(--ge-dark-color, #121212));&quot;&gt;&lt;br class=&quot;Apple-interchange-newline&quot;&gt;&lt;/span&gt;&lt;div&gt;&lt;br&gt;&lt;/div&gt;" style="text;strokeColor=none;fillColor=none;align=left;verticalAlign=top;spacingLeft=4;spacingRight=4;overflow=hidden;rotatable=0;points=[[0,0.5],[1,0.5]];portConstraint=eastwest;whiteSpace=wrap;html=1;" parent="zJV512reWy2KxUJ79HiW-34" vertex="1">
          <mxGeometry y="86" width="330" height="26" as="geometry" />
        </mxCell>
        <mxCell id="EVvFnJnLSGe2XGKSUcR7-44" value="&lt;div style=&quot;forced-color-adjust: none; color: rgb(0, 0, 0); font-family: Helvetica; font-size: 12px; font-style: normal; font-variant-ligatures: normal; font-variant-caps: normal; font-weight: 400; letter-spacing: normal; orphans: 2; text-align: center; text-indent: 0px; text-transform: none; widows: 2; word-spacing: 0px; -webkit-text-stroke-width: 0px; white-space: nowrap; text-decoration-thickness: initial; text-decoration-style: initial; text-decoration-color: initial;&quot;&gt;&lt;span style=&quot;background-color: light-dark(#ffffff, var(--ge-dark-color, #121212));&quot;&gt;+ ReadBlock( dstData: byte[], dataSize: int ): int {abstract}&lt;/span&gt;&lt;/div&gt;&lt;span style=&quot;background-color: light-dark(#ffffff, var(--ge-dark-color, #121212));&quot;&gt;&lt;br class=&quot;Apple-interchange-newline&quot;&gt;&lt;/span&gt;&lt;div&gt;&lt;br&gt;&lt;/div&gt;" style="text;strokeColor=none;fillColor=none;align=left;verticalAlign=top;spacingLeft=4;spacingRight=4;overflow=hidden;rotatable=0;points=[[0,0.5],[1,0.5]];portConstraint=eastwest;whiteSpace=wrap;html=1;" parent="zJV512reWy2KxUJ79HiW-34" vertex="1">
          <mxGeometry y="112" width="330" height="26" as="geometry" />
        </mxCell>
        <mxCell id="EVvFnJnLSGe2XGKSUcR7-43" value="&lt;span style=&quot;color: rgb(0, 0, 0); font-family: Helvetica; font-size: 12px; font-style: normal; font-variant-ligatures: normal; font-variant-caps: normal; font-weight: 400; letter-spacing: normal; orphans: 2; text-align: center; text-indent: 0px; text-transform: none; widows: 2; word-spacing: 0px; -webkit-text-stroke-width: 0px; white-space: nowrap; text-decoration-thickness: initial; text-decoration-style: initial; text-decoration-color: initial; float: none; background-color: light-dark(#ffffff, var(--ge-dark-color, #121212)); display: inline !important;&quot;&gt;+ ReadByte(): byte {abstract}&lt;/span&gt;&lt;div&gt;&lt;br&gt;&lt;/div&gt;" style="text;strokeColor=none;fillColor=none;align=left;verticalAlign=top;spacingLeft=4;spacingRight=4;overflow=hidden;rotatable=0;points=[[0,0.5],[1,0.5]];portConstraint=eastwest;whiteSpace=wrap;html=1;" parent="zJV512reWy2KxUJ79HiW-34" vertex="1">
          <mxGeometry y="138" width="330" height="26" as="geometry" />
        </mxCell>
        <mxCell id="zJV512reWy2KxUJ79HiW-38" value="InputDecrypt" style="swimlane;fontStyle=1;align=center;verticalAlign=top;childLayout=stackLayout;horizontal=1;startSize=26;horizontalStack=0;resizeParent=1;resizeParentMax=0;resizeLast=0;collapsible=1;marginBottom=0;whiteSpace=wrap;html=1;" parent="1" vertex="1">
          <mxGeometry x="-830" y="146" width="420" height="138" as="geometry" />
        </mxCell>
        <mxCell id="zJV512reWy2KxUJ79HiW-39" value="_decryptTable: IReadOnlyDictionary&amp;lt;byte, byte&amp;gt;" style="text;strokeColor=none;fillColor=none;align=left;verticalAlign=top;spacingLeft=4;spacingRight=4;overflow=hidden;rotatable=0;points=[[0,0.5],[1,0.5]];portConstraint=eastwest;whiteSpace=wrap;html=1;" parent="zJV512reWy2KxUJ79HiW-38" vertex="1">
          <mxGeometry y="26" width="420" height="26" as="geometry" />
        </mxCell>
        <mxCell id="zJV512reWy2KxUJ79HiW-40" value="" style="line;strokeWidth=1;fillColor=none;align=left;verticalAlign=middle;spacingTop=-1;spacingLeft=3;spacingRight=3;rotatable=0;labelPosition=right;points=[];portConstraint=eastwest;strokeColor=inherit;" parent="zJV512reWy2KxUJ79HiW-38" vertex="1">
          <mxGeometry y="52" width="420" height="8" as="geometry" />
        </mxCell>
        <mxCell id="zJV512reWy2KxUJ79HiW-41" value="+ InputDecrypt( inputStream: IInputStream, key: int&amp;nbsp;) : base( inputStream )" style="text;strokeColor=none;fillColor=none;align=left;verticalAlign=top;spacingLeft=4;spacingRight=4;overflow=hidden;rotatable=0;points=[[0,0.5],[1,0.5]];portConstraint=eastwest;whiteSpace=wrap;html=1;" parent="zJV512reWy2KxUJ79HiW-38" vertex="1">
          <mxGeometry y="60" width="420" height="26" as="geometry" />
        </mxCell>
        <mxCell id="EVvFnJnLSGe2XGKSUcR7-36" value="+ override ReadBlock( dstData: byte[], dataSize: int&amp;nbsp;): int&amp;nbsp;" style="text;strokeColor=none;fillColor=none;align=left;verticalAlign=top;spacingLeft=4;spacingRight=4;overflow=hidden;rotatable=0;points=[[0,0.5],[1,0.5]];portConstraint=eastwest;whiteSpace=wrap;html=1;" parent="zJV512reWy2KxUJ79HiW-38" vertex="1">
          <mxGeometry y="86" width="420" height="26" as="geometry" />
        </mxCell>
        <mxCell id="EVvFnJnLSGe2XGKSUcR7-35" value="+ override ReadByte(): byte" style="text;strokeColor=none;fillColor=none;align=left;verticalAlign=top;spacingLeft=4;spacingRight=4;overflow=hidden;rotatable=0;points=[[0,0.5],[1,0.5]];portConstraint=eastwest;whiteSpace=wrap;html=1;" parent="zJV512reWy2KxUJ79HiW-38" vertex="1">
          <mxGeometry y="112" width="420" height="26" as="geometry" />
        </mxCell>
        <mxCell id="zJV512reWy2KxUJ79HiW-46" value="InputDecompress" style="swimlane;fontStyle=1;align=center;verticalAlign=top;childLayout=stackLayout;horizontal=1;startSize=26;horizontalStack=0;resizeParent=1;resizeParentMax=0;resizeLast=0;collapsible=1;marginBottom=0;whiteSpace=wrap;html=1;" parent="1" vertex="1">
          <mxGeometry x="-830" y="420" width="430" height="190" as="geometry" />
        </mxCell>
        <mxCell id="zJV512reWy2KxUJ79HiW-47" value="&lt;div&gt;- _currentByte:&amp;nbsp;&lt;span style=&quot;background-color: transparent; color: light-dark(rgb(0, 0, 0), rgb(255, 255, 255));&quot;&gt;byte&lt;/span&gt;&lt;span style=&quot;background-color: transparent; color: light-dark(rgb(0, 0, 0), rgb(255, 255, 255));&quot;&gt;&amp;nbsp;&lt;/span&gt;&lt;/div&gt;&lt;div&gt;&lt;br&gt;&lt;/div&gt;" style="text;strokeColor=none;fillColor=none;align=left;verticalAlign=top;spacingLeft=4;spacingRight=4;overflow=hidden;rotatable=0;points=[[0,0.5],[1,0.5]];portConstraint=eastwest;whiteSpace=wrap;html=1;" parent="zJV512reWy2KxUJ79HiW-46" vertex="1">
          <mxGeometry y="26" width="430" height="26" as="geometry" />
        </mxCell>
        <mxCell id="EVvFnJnLSGe2XGKSUcR7-37" value="- _remainingCount: int&amp;nbsp;= 0" style="text;strokeColor=none;fillColor=none;align=left;verticalAlign=top;spacingLeft=4;spacingRight=4;overflow=hidden;rotatable=0;points=[[0,0.5],[1,0.5]];portConstraint=eastwest;whiteSpace=wrap;html=1;" parent="zJV512reWy2KxUJ79HiW-46" vertex="1">
          <mxGeometry y="52" width="430" height="26" as="geometry" />
        </mxCell>
        <mxCell id="zJV512reWy2KxUJ79HiW-48" value="" style="line;strokeWidth=1;fillColor=none;align=left;verticalAlign=middle;spacingTop=-1;spacingLeft=3;spacingRight=3;rotatable=0;labelPosition=right;points=[];portConstraint=eastwest;strokeColor=inherit;" parent="zJV512reWy2KxUJ79HiW-46" vertex="1">
          <mxGeometry y="78" width="430" height="8" as="geometry" />
        </mxCell>
        <mxCell id="zJV512reWy2KxUJ79HiW-49" value="+ InputDecompress( inputStream: IInputStream&amp;nbsp;&amp;nbsp;) : base( inputStream )" style="text;strokeColor=none;fillColor=none;align=left;verticalAlign=top;spacingLeft=4;spacingRight=4;overflow=hidden;rotatable=0;points=[[0,0.5],[1,0.5]];portConstraint=eastwest;whiteSpace=wrap;html=1;" parent="zJV512reWy2KxUJ79HiW-46" vertex="1">
          <mxGeometry y="86" width="430" height="26" as="geometry" />
        </mxCell>
        <mxCell id="EVvFnJnLSGe2XGKSUcR7-40" value="+ override IsEof(): bool" style="text;strokeColor=none;fillColor=none;align=left;verticalAlign=top;spacingLeft=4;spacingRight=4;overflow=hidden;rotatable=0;points=[[0,0.5],[1,0.5]];portConstraint=eastwest;whiteSpace=wrap;html=1;" parent="zJV512reWy2KxUJ79HiW-46" vertex="1">
          <mxGeometry y="112" width="430" height="26" as="geometry" />
        </mxCell>
        <mxCell id="EVvFnJnLSGe2XGKSUcR7-39" value="+ override ReadBlock( dstData: byte[], dataSize: int&amp;nbsp;): int" style="text;strokeColor=none;fillColor=none;align=left;verticalAlign=top;spacingLeft=4;spacingRight=4;overflow=hidden;rotatable=0;points=[[0,0.5],[1,0.5]];portConstraint=eastwest;whiteSpace=wrap;html=1;" parent="zJV512reWy2KxUJ79HiW-46" vertex="1">
          <mxGeometry y="138" width="430" height="26" as="geometry" />
        </mxCell>
        <mxCell id="EVvFnJnLSGe2XGKSUcR7-38" value="+ override ReadByte(): byte" style="text;strokeColor=none;fillColor=none;align=left;verticalAlign=top;spacingLeft=4;spacingRight=4;overflow=hidden;rotatable=0;points=[[0,0.5],[1,0.5]];portConstraint=eastwest;whiteSpace=wrap;html=1;" parent="zJV512reWy2KxUJ79HiW-46" vertex="1">
          <mxGeometry y="164" width="430" height="26" as="geometry" />
        </mxCell>
        <mxCell id="zJV512reWy2KxUJ79HiW-52" value="Extends" style="endArrow=block;endSize=16;endFill=0;html=1;rounded=0;exitX=1.002;exitY=0.826;exitDx=0;exitDy=0;exitPerimeter=0;entryX=0;entryY=0.5;entryDx=0;entryDy=0;" parent="1" source="zJV512reWy2KxUJ79HiW-47" target="EVvFnJnLSGe2XGKSUcR7-44" edge="1">
          <mxGeometry x="-0.0052" width="160" relative="1" as="geometry">
            <mxPoint x="225" y="-38" as="sourcePoint" />
            <mxPoint x="375" y="104" as="targetPoint" />
            <Array as="points">
              <mxPoint x="-300" y="560" />
            </Array>
            <mxPoint as="offset" />
          </mxGeometry>
        </mxCell>
        <mxCell id="zJV512reWy2KxUJ79HiW-53" value="" style="endArrow=block;dashed=1;endFill=0;endSize=12;html=1;rounded=0;entryX=0;entryY=0.5;entryDx=0;entryDy=0;exitX=0.996;exitY=1.077;exitDx=0;exitDy=0;exitPerimeter=0;" parent="1" source="zJV512reWy2KxUJ79HiW-35" target="zJV512reWy2KxUJ79HiW-15" edge="1">
          <mxGeometry width="160" relative="1" as="geometry">
            <mxPoint x="700" y="300" as="sourcePoint" />
            <mxPoint x="563" y="212" as="targetPoint" />
          </mxGeometry>
        </mxCell>
        <mxCell id="zJV512reWy2KxUJ79HiW-54" value="" style="endArrow=block;dashed=1;endFill=0;endSize=12;html=1;rounded=0;entryX=0.355;entryY=0.031;entryDx=0;entryDy=0;exitX=1;exitY=0.5;exitDx=0;exitDy=0;entryPerimeter=0;" parent="1" source="zJV512reWy2KxUJ79HiW-31" target="zJV512reWy2KxUJ79HiW-17" edge="1">
          <mxGeometry width="160" relative="1" as="geometry">
            <mxPoint x="850" y="220" as="sourcePoint" />
            <mxPoint x="1010" y="220" as="targetPoint" />
            <Array as="points">
              <mxPoint x="330" y="-220" />
            </Array>
          </mxGeometry>
        </mxCell>
        <mxCell id="zJV512reWy2KxUJ79HiW-56" value="OutputEncrypt" style="swimlane;fontStyle=1;align=center;verticalAlign=top;childLayout=stackLayout;horizontal=1;startSize=26;horizontalStack=0;resizeParent=1;resizeParentMax=0;resizeLast=0;collapsible=1;marginBottom=0;whiteSpace=wrap;html=1;" parent="1" vertex="1">
          <mxGeometry x="-830" y="-190" width="430" height="152" as="geometry" />
        </mxCell>
        <mxCell id="zJV512reWy2KxUJ79HiW-57" value="- _encryptTable: IReadOnlyDictionary&amp;lt;byte, byte&amp;gt;" style="text;strokeColor=none;fillColor=none;align=left;verticalAlign=top;spacingLeft=4;spacingRight=4;overflow=hidden;rotatable=0;points=[[0,0.5],[1,0.5]];portConstraint=eastwest;whiteSpace=wrap;html=1;" parent="zJV512reWy2KxUJ79HiW-56" vertex="1">
          <mxGeometry y="26" width="430" height="26" as="geometry" />
        </mxCell>
        <mxCell id="zJV512reWy2KxUJ79HiW-58" value="" style="line;strokeWidth=1;fillColor=none;align=left;verticalAlign=middle;spacingTop=-1;spacingLeft=3;spacingRight=3;rotatable=0;labelPosition=right;points=[];portConstraint=eastwest;strokeColor=inherit;" parent="zJV512reWy2KxUJ79HiW-56" vertex="1">
          <mxGeometry y="52" width="430" height="8" as="geometry" />
        </mxCell>
        <mxCell id="zJV512reWy2KxUJ79HiW-59" value="+ OutputEncrypt( outputStream: IOutputStream&amp;nbsp;, key: int ) : base( outputStream )" style="text;strokeColor=none;fillColor=none;align=left;verticalAlign=top;spacingLeft=4;spacingRight=4;overflow=hidden;rotatable=0;points=[[0,0.5],[1,0.5]];portConstraint=eastwest;whiteSpace=wrap;html=1;" parent="zJV512reWy2KxUJ79HiW-56" vertex="1">
          <mxGeometry y="60" width="430" height="40" as="geometry" />
        </mxCell>
        <mxCell id="EVvFnJnLSGe2XGKSUcR7-26" value="+ override WriteBlock( srcData: byte[]&amp;nbsp;, dataSize: int)" style="text;strokeColor=none;fillColor=none;align=left;verticalAlign=top;spacingLeft=4;spacingRight=4;overflow=hidden;rotatable=0;points=[[0,0.5],[1,0.5]];portConstraint=eastwest;whiteSpace=wrap;html=1;" parent="zJV512reWy2KxUJ79HiW-56" vertex="1">
          <mxGeometry y="100" width="430" height="26" as="geometry" />
        </mxCell>
        <mxCell id="EVvFnJnLSGe2XGKSUcR7-25" value="+ override WriteByte( data: byte )" style="text;strokeColor=none;fillColor=none;align=left;verticalAlign=top;spacingLeft=4;spacingRight=4;overflow=hidden;rotatable=0;points=[[0,0.5],[1,0.5]];portConstraint=eastwest;whiteSpace=wrap;html=1;" parent="zJV512reWy2KxUJ79HiW-56" vertex="1">
          <mxGeometry y="126" width="430" height="26" as="geometry" />
        </mxCell>
        <mxCell id="zJV512reWy2KxUJ79HiW-60" value="OutputCompress" style="swimlane;fontStyle=1;align=center;verticalAlign=top;childLayout=stackLayout;horizontal=1;startSize=26;horizontalStack=0;resizeParent=1;resizeParentMax=0;resizeLast=0;collapsible=1;marginBottom=0;whiteSpace=wrap;html=1;" parent="1" vertex="1">
          <mxGeometry x="-830" y="-470" width="430" height="164" as="geometry" />
        </mxCell>
        <mxCell id="zJV512reWy2KxUJ79HiW-61" value="- readonly _compressedData: CompressedData&amp;nbsp;= new( 0, 0 );" style="text;strokeColor=none;fillColor=none;align=left;verticalAlign=top;spacingLeft=4;spacingRight=4;overflow=hidden;rotatable=0;points=[[0,0.5],[1,0.5]];portConstraint=eastwest;whiteSpace=wrap;html=1;" parent="zJV512reWy2KxUJ79HiW-60" vertex="1">
          <mxGeometry y="26" width="430" height="26" as="geometry" />
        </mxCell>
        <mxCell id="zJV512reWy2KxUJ79HiW-62" value="" style="line;strokeWidth=1;fillColor=none;align=left;verticalAlign=middle;spacingTop=-1;spacingLeft=3;spacingRight=3;rotatable=0;labelPosition=right;points=[];portConstraint=eastwest;strokeColor=inherit;" parent="zJV512reWy2KxUJ79HiW-60" vertex="1">
          <mxGeometry y="52" width="430" height="8" as="geometry" />
        </mxCell>
        <mxCell id="zJV512reWy2KxUJ79HiW-63" value="+ OutputCompress( outputStream: IOutputStream&amp;nbsp;) : base( outputStream )" style="text;strokeColor=none;fillColor=none;align=left;verticalAlign=top;spacingLeft=4;spacingRight=4;overflow=hidden;rotatable=0;points=[[0,0.5],[1,0.5]];portConstraint=eastwest;whiteSpace=wrap;html=1;" parent="zJV512reWy2KxUJ79HiW-60" vertex="1">
          <mxGeometry y="60" width="430" height="26" as="geometry" />
        </mxCell>
        <mxCell id="EVvFnJnLSGe2XGKSUcR7-33" value="+ override WriteBlock( srcData: byte[]&amp;nbsp;, dataSize: int)" style="text;strokeColor=none;fillColor=none;align=left;verticalAlign=top;spacingLeft=4;spacingRight=4;overflow=hidden;rotatable=0;points=[[0,0.5],[1,0.5]];portConstraint=eastwest;whiteSpace=wrap;html=1;" parent="zJV512reWy2KxUJ79HiW-60" vertex="1">
          <mxGeometry y="86" width="430" height="26" as="geometry" />
        </mxCell>
        <mxCell id="EVvFnJnLSGe2XGKSUcR7-32" value="+ override WriteByte( data: byte&amp;nbsp;)" style="text;strokeColor=none;fillColor=none;align=left;verticalAlign=top;spacingLeft=4;spacingRight=4;overflow=hidden;rotatable=0;points=[[0,0.5],[1,0.5]];portConstraint=eastwest;whiteSpace=wrap;html=1;" parent="zJV512reWy2KxUJ79HiW-60" vertex="1">
          <mxGeometry y="112" width="430" height="26" as="geometry" />
        </mxCell>
        <mxCell id="EVvFnJnLSGe2XGKSUcR7-34" value="+ FlushCurrentSequence()" style="text;strokeColor=none;fillColor=none;align=left;verticalAlign=top;spacingLeft=4;spacingRight=4;overflow=hidden;rotatable=0;points=[[0,0.5],[1,0.5]];portConstraint=eastwest;whiteSpace=wrap;html=1;" parent="zJV512reWy2KxUJ79HiW-60" vertex="1">
          <mxGeometry y="138" width="430" height="26" as="geometry" />
        </mxCell>
        <mxCell id="EVvFnJnLSGe2XGKSUcR7-1" value="CommandHandler" style="swimlane;fontStyle=1;align=center;verticalAlign=top;childLayout=stackLayout;horizontal=1;startSize=26;horizontalStack=0;resizeParent=1;resizeParentMax=0;resizeLast=0;collapsible=1;marginBottom=0;whiteSpace=wrap;html=1;" parent="1" vertex="1">
          <mxGeometry x="-140" y="-10" width="330" height="156" as="geometry" />
        </mxCell>
        <mxCell id="EVvFnJnLSGe2XGKSUcR7-2" value="- _inputStream: IInputStream" style="text;strokeColor=none;fillColor=none;align=left;verticalAlign=top;spacingLeft=4;spacingRight=4;overflow=hidden;rotatable=0;points=[[0,0.5],[1,0.5]];portConstraint=eastwest;whiteSpace=wrap;html=1;" parent="EVvFnJnLSGe2XGKSUcR7-1" vertex="1">
          <mxGeometry y="26" width="330" height="26" as="geometry" />
        </mxCell>
        <mxCell id="EVvFnJnLSGe2XGKSUcR7-19" value="- _outputStream: IOutputStream" style="text;strokeColor=none;fillColor=none;align=left;verticalAlign=top;spacingLeft=4;spacingRight=4;overflow=hidden;rotatable=0;points=[[0,0.5],[1,0.5]];portConstraint=eastwest;whiteSpace=wrap;html=1;" parent="EVvFnJnLSGe2XGKSUcR7-1" vertex="1">
          <mxGeometry y="52" width="330" height="26" as="geometry" />
        </mxCell>
        <mxCell id="EVvFnJnLSGe2XGKSUcR7-3" value="" style="line;strokeWidth=1;fillColor=none;align=left;verticalAlign=middle;spacingTop=-1;spacingLeft=3;spacingRight=3;rotatable=0;labelPosition=right;points=[];portConstraint=eastwest;strokeColor=inherit;" parent="EVvFnJnLSGe2XGKSUcR7-1" vertex="1">
          <mxGeometry y="78" width="330" height="8" as="geometry" />
        </mxCell>
        <mxCell id="EVvFnJnLSGe2XGKSUcR7-4" value="+ CommandHandler(inputStream:&amp;nbsp;&amp;nbsp;IInputStream,&amp;nbsp; outputStream: IOutputStream&amp;nbsp;)" style="text;strokeColor=none;fillColor=none;align=left;verticalAlign=top;spacingLeft=4;spacingRight=4;overflow=hidden;rotatable=0;points=[[0,0.5],[1,0.5]];portConstraint=eastwest;whiteSpace=wrap;html=1;" parent="EVvFnJnLSGe2XGKSUcR7-1" vertex="1">
          <mxGeometry y="86" width="330" height="44" as="geometry" />
        </mxCell>
        <mxCell id="EVvFnJnLSGe2XGKSUcR7-21" value="+ HandleOptions( options: string[]&amp;nbsp;)" style="text;strokeColor=none;fillColor=none;align=left;verticalAlign=top;spacingLeft=4;spacingRight=4;overflow=hidden;rotatable=0;points=[[0,0.5],[1,0.5]];portConstraint=eastwest;whiteSpace=wrap;html=1;" parent="EVvFnJnLSGe2XGKSUcR7-1" vertex="1">
          <mxGeometry y="130" width="330" height="26" as="geometry" />
        </mxCell>
        <mxCell id="EVvFnJnLSGe2XGKSUcR7-5" value="StreamApplication" style="swimlane;fontStyle=1;align=center;verticalAlign=top;childLayout=stackLayout;horizontal=1;startSize=26;horizontalStack=0;resizeParent=1;resizeParentMax=0;resizeLast=0;collapsible=1;marginBottom=0;whiteSpace=wrap;html=1;rounded=0;strokeWidth=3;" parent="1" vertex="1">
          <mxGeometry x="389" y="110" width="180" height="86" as="geometry" />
        </mxCell>
        <mxCell id="EVvFnJnLSGe2XGKSUcR7-6" value="- _minimalCountArgs: int = 3" style="text;strokeColor=none;fillColor=none;align=left;verticalAlign=top;spacingLeft=4;spacingRight=4;overflow=hidden;rotatable=0;points=[[0,0.5],[1,0.5]];portConstraint=eastwest;whiteSpace=wrap;html=1;" parent="EVvFnJnLSGe2XGKSUcR7-5" vertex="1">
          <mxGeometry y="26" width="180" height="26" as="geometry" />
        </mxCell>
        <mxCell id="EVvFnJnLSGe2XGKSUcR7-7" value="" style="line;strokeWidth=1;fillColor=none;align=left;verticalAlign=middle;spacingTop=-1;spacingLeft=3;spacingRight=3;rotatable=0;labelPosition=right;points=[];portConstraint=eastwest;strokeColor=inherit;" parent="EVvFnJnLSGe2XGKSUcR7-5" vertex="1">
          <mxGeometry y="52" width="180" height="8" as="geometry" />
        </mxCell>
        <mxCell id="EVvFnJnLSGe2XGKSUcR7-8" value="+ Run( args: string[] ): void" style="text;strokeColor=none;fillColor=none;align=left;verticalAlign=top;spacingLeft=4;spacingRight=4;overflow=hidden;rotatable=0;points=[[0,0.5],[1,0.5]];portConstraint=eastwest;whiteSpace=wrap;html=1;" parent="EVvFnJnLSGe2XGKSUcR7-5" vertex="1">
          <mxGeometry y="60" width="180" height="26" as="geometry" />
        </mxCell>
        <mxCell id="zJV512reWy2KxUJ79HiW-51" value="Extends" style="endArrow=block;endSize=16;endFill=0;html=1;rounded=0;exitX=1;exitY=0.5;exitDx=0;exitDy=0;entryX=0;entryY=0.5;entryDx=0;entryDy=0;" parent="1" source="zJV512reWy2KxUJ79HiW-39" target="zJV512reWy2KxUJ79HiW-35" edge="1">
          <mxGeometry width="160" relative="1" as="geometry">
            <mxPoint x="-119.99999999999994" y="251.9960000000001" as="sourcePoint" />
            <mxPoint x="214.56" y="221.5" as="targetPoint" />
            <Array as="points">
              <mxPoint x="-220" y="300" />
            </Array>
          </mxGeometry>
        </mxCell>
        <mxCell id="EVvFnJnLSGe2XGKSUcR7-12" value="" style="endArrow=diamondThin;endFill=1;endSize=24;html=1;rounded=0;entryX=0.997;entryY=0.971;entryDx=0;entryDy=0;entryPerimeter=0;exitX=0;exitY=0.25;exitDx=0;exitDy=0;" parent="1" source="zJV512reWy2KxUJ79HiW-15" target="EVvFnJnLSGe2XGKSUcR7-4" edge="1">
          <mxGeometry width="160" relative="1" as="geometry">
            <mxPoint x="240" y="190" as="sourcePoint" />
            <mxPoint x="400" y="190" as="targetPoint" />
            <Array as="points">
              <mxPoint x="280" y="230" />
            </Array>
          </mxGeometry>
        </mxCell>
        <mxCell id="EVvFnJnLSGe2XGKSUcR7-13" value="" style="endArrow=diamondThin;endFill=1;endSize=24;html=1;rounded=0;exitX=0;exitY=0.75;exitDx=0;exitDy=0;entryX=1.03;entryY=0.17;entryDx=0;entryDy=0;entryPerimeter=0;" parent="1" source="zJV512reWy2KxUJ79HiW-17" target="EVvFnJnLSGe2XGKSUcR7-2" edge="1">
          <mxGeometry width="160" relative="1" as="geometry">
            <mxPoint x="250" y="200" as="sourcePoint" />
            <mxPoint x="410" y="200" as="targetPoint" />
            <Array as="points">
              <mxPoint x="270" y="20" />
            </Array>
          </mxGeometry>
        </mxCell>
        <mxCell id="EVvFnJnLSGe2XGKSUcR7-27" value="CompressedData" style="swimlane;fontStyle=0;childLayout=stackLayout;horizontal=1;startSize=26;fillColor=none;horizontalStack=0;resizeParent=1;resizeParentMax=0;resizeLast=0;collapsible=1;marginBottom=0;whiteSpace=wrap;html=1;" parent="1" vertex="1">
          <mxGeometry x="-820" y="-760" width="270" height="102" as="geometry" />
        </mxCell>
        <mxCell id="EVvFnJnLSGe2XGKSUcR7-28" value="+ byte Data { get; set; }" style="text;strokeColor=none;fillColor=none;align=left;verticalAlign=top;spacingLeft=4;spacingRight=4;overflow=hidden;rotatable=0;points=[[0,0.5],[1,0.5]];portConstraint=eastwest;whiteSpace=wrap;html=1;" parent="EVvFnJnLSGe2XGKSUcR7-27" vertex="1">
          <mxGeometry y="26" width="270" height="24" as="geometry" />
        </mxCell>
        <mxCell id="EVvFnJnLSGe2XGKSUcR7-29" value="+ byte Size { get; set; }" style="text;strokeColor=none;fillColor=none;align=left;verticalAlign=top;spacingLeft=4;spacingRight=4;overflow=hidden;rotatable=0;points=[[0,0.5],[1,0.5]];portConstraint=eastwest;whiteSpace=wrap;html=1;" parent="EVvFnJnLSGe2XGKSUcR7-27" vertex="1">
          <mxGeometry y="50" width="270" height="26" as="geometry" />
        </mxCell>
        <mxCell id="EVvFnJnLSGe2XGKSUcR7-30" value="+ CompressedData( data: byte&amp;nbsp;, size: byte )" style="text;strokeColor=none;fillColor=none;align=left;verticalAlign=top;spacingLeft=4;spacingRight=4;overflow=hidden;rotatable=0;points=[[0,0.5],[1,0.5]];portConstraint=eastwest;whiteSpace=wrap;html=1;" parent="EVvFnJnLSGe2XGKSUcR7-27" vertex="1">
          <mxGeometry y="76" width="270" height="26" as="geometry" />
        </mxCell>
        <mxCell id="EVvFnJnLSGe2XGKSUcR7-31" value="" style="endArrow=diamondThin;endFill=1;endSize=24;html=1;rounded=0;entryX=0.362;entryY=-0.003;entryDx=0;entryDy=0;entryPerimeter=0;exitX=0.525;exitY=1.027;exitDx=0;exitDy=0;exitPerimeter=0;" parent="1" source="EVvFnJnLSGe2XGKSUcR7-30" target="zJV512reWy2KxUJ79HiW-60" edge="1">
          <mxGeometry width="160" relative="1" as="geometry">
            <mxPoint x="-120" y="-430" as="sourcePoint" />
            <mxPoint x="40" y="-430" as="targetPoint" />
          </mxGeometry>
        </mxCell>
        <mxCell id="EVvFnJnLSGe2XGKSUcR7-71" value="Use" style="endArrow=open;endSize=12;dashed=1;html=1;rounded=0;entryX=0.997;entryY=0.062;entryDx=0;entryDy=0;entryPerimeter=0;exitX=0;exitY=0.5;exitDx=0;exitDy=0;" parent="1" source="EVvFnJnLSGe2XGKSUcR7-6" target="EVvFnJnLSGe2XGKSUcR7-4" edge="1">
          <mxGeometry width="160" relative="1" as="geometry">
            <mxPoint x="250" y="110" as="sourcePoint" />
            <mxPoint x="410" y="110" as="targetPoint" />
            <Array as="points">
              <mxPoint x="320" y="98" />
            </Array>
          </mxGeometry>
        </mxCell>
        <mxCell id="EVvFnJnLSGe2XGKSUcR7-72" value="Use" style="endArrow=open;endSize=12;dashed=1;html=1;rounded=0;entryX=0;entryY=0.5;entryDx=0;entryDy=0;exitX=1;exitY=0;exitDx=0;exitDy=0;" parent="1" source="EVvFnJnLSGe2XGKSUcR7-5" target="EVvFnJnLSGe2XGKSUcR7-57" edge="1">
          <mxGeometry width="160" relative="1" as="geometry">
            <mxPoint x="460" y="110" as="sourcePoint" />
            <mxPoint x="620" y="110" as="targetPoint" />
            <Array as="points">
              <mxPoint x="650" y="70" />
            </Array>
          </mxGeometry>
        </mxCell>
        <mxCell id="EVvFnJnLSGe2XGKSUcR7-73" value="Use" style="endArrow=open;endSize=12;dashed=1;html=1;rounded=0;entryX=0;entryY=0.5;entryDx=0;entryDy=0;exitX=1.011;exitY=0.973;exitDx=0;exitDy=0;exitPerimeter=0;" parent="1" source="EVvFnJnLSGe2XGKSUcR7-8" target="EVvFnJnLSGe2XGKSUcR7-61" edge="1">
          <mxGeometry width="160" relative="1" as="geometry">
            <mxPoint x="620" y="120" as="sourcePoint" />
            <mxPoint x="720" y="11" as="targetPoint" />
            <Array as="points">
              <mxPoint x="650" y="220" />
            </Array>
          </mxGeometry>
        </mxCell>
        <mxCell id="EVvFnJnLSGe2XGKSUcR7-74" value="Use" style="endArrow=open;endSize=12;dashed=1;html=1;rounded=0;entryX=0.5;entryY=1;entryDx=0;entryDy=0;exitX=0.5;exitY=0;exitDx=0;exitDy=0;" parent="1" source="EVvFnJnLSGe2XGKSUcR7-5" target="zJV512reWy2KxUJ79HiW-17" edge="1">
          <mxGeometry width="160" relative="1" as="geometry">
            <mxPoint x="320" y="160" as="sourcePoint" />
            <mxPoint x="480" y="160" as="targetPoint" />
          </mxGeometry>
        </mxCell>
        <mxCell id="EVvFnJnLSGe2XGKSUcR7-75" value="Use" style="endArrow=open;endSize=12;dashed=1;html=1;rounded=0;entryX=0.5;entryY=0;entryDx=0;entryDy=0;exitX=0.515;exitY=1.104;exitDx=0;exitDy=0;exitPerimeter=0;" parent="1" source="EVvFnJnLSGe2XGKSUcR7-8" target="zJV512reWy2KxUJ79HiW-15" edge="1">
          <mxGeometry width="160" relative="1" as="geometry">
            <mxPoint x="464" y="284" as="sourcePoint" />
            <mxPoint x="442" y="190" as="targetPoint" />
            <Array as="points">
              <mxPoint x="490" y="300" />
            </Array>
          </mxGeometry>
        </mxCell>
        <mxCell id="EVvFnJnLSGe2XGKSUcR7-85" value="Extends" style="endArrow=block;endSize=16;endFill=0;html=1;rounded=0;exitX=1;exitY=0.5;exitDx=0;exitDy=0;entryX=0.004;entryY=-0.109;entryDx=0;entryDy=0;entryPerimeter=0;" parent="1" source="EVvFnJnLSGe2XGKSUcR7-33" target="zJV512reWy2KxUJ79HiW-33" edge="1">
          <mxGeometry width="160" relative="1" as="geometry">
            <mxPoint x="-230" y="-460" as="sourcePoint" />
            <mxPoint x="-70" y="-240" as="targetPoint" />
            <Array as="points">
              <mxPoint x="-270" y="-390" />
            </Array>
          </mxGeometry>
        </mxCell>
        <mxCell id="EVvFnJnLSGe2XGKSUcR7-86" value="Extends" style="endArrow=block;endSize=16;endFill=0;html=1;rounded=0;exitX=1;exitY=0.5;exitDx=0;exitDy=0;entryX=0;entryY=0.5;entryDx=0;entryDy=0;" parent="1" source="zJV512reWy2KxUJ79HiW-59" target="EVvFnJnLSGe2XGKSUcR7-24" edge="1">
          <mxGeometry width="160" relative="1" as="geometry">
            <mxPoint x="-220" y="-330" as="sourcePoint" />
            <mxPoint x="-60" y="-110" as="targetPoint" />
            <Array as="points">
              <mxPoint x="-250" y="-140" />
            </Array>
          </mxGeometry>
        </mxCell>
        <mxCell id="EVvFnJnLSGe2XGKSUcR7-88" value="Use" style="endArrow=open;endSize=12;dashed=1;html=1;rounded=0;exitX=0;exitY=0.5;exitDx=0;exitDy=0;entryX=-0.005;entryY=-0.05;entryDx=0;entryDy=0;entryPerimeter=0;" parent="1" source="EVvFnJnLSGe2XGKSUcR7-19" target="zJV512reWy2KxUJ79HiW-59" edge="1">
          <mxGeometry width="160" relative="1" as="geometry">
            <mxPoint x="-430" y="-50" as="sourcePoint" />
            <mxPoint x="-930" y="-140" as="targetPoint" />
            <Array as="points">
              <mxPoint x="-940" y="50" />
              <mxPoint x="-940" y="-132" />
            </Array>
          </mxGeometry>
        </mxCell>
        <mxCell id="EVvFnJnLSGe2XGKSUcR7-89" value="Use" style="endArrow=open;endSize=12;dashed=1;html=1;rounded=0;exitX=0;exitY=0.5;exitDx=0;exitDy=0;entryX=0;entryY=0.5;entryDx=0;entryDy=0;" parent="1" source="EVvFnJnLSGe2XGKSUcR7-4" target="zJV512reWy2KxUJ79HiW-41" edge="1">
          <mxGeometry width="160" relative="1" as="geometry">
            <mxPoint x="-130" y="65" as="sourcePoint" />
            <mxPoint x="-940" y="220" as="targetPoint" />
            <Array as="points">
              <mxPoint x="-940" y="98" />
              <mxPoint x="-940" y="219" />
            </Array>
          </mxGeometry>
        </mxCell>
        <mxCell id="EVvFnJnLSGe2XGKSUcR7-90" value="Use" style="endArrow=open;endSize=12;dashed=1;html=1;rounded=0;exitX=-0.008;exitY=0.152;exitDx=0;exitDy=0;exitPerimeter=0;entryX=0;entryY=0.5;entryDx=0;entryDy=0;" parent="1" source="EVvFnJnLSGe2XGKSUcR7-4" target="zJV512reWy2KxUJ79HiW-49" edge="1">
          <mxGeometry width="160" relative="1" as="geometry">
            <mxPoint x="-91" y="200" as="sourcePoint" />
            <mxPoint x="-1000" y="520" as="targetPoint" />
            <Array as="points">
              <mxPoint x="-1000" y="80" />
              <mxPoint x="-1000" y="519" />
            </Array>
          </mxGeometry>
        </mxCell>
        <mxCell id="EVvFnJnLSGe2XGKSUcR7-91" value="Use" style="endArrow=open;endSize=12;dashed=1;html=1;rounded=0;exitX=0.001;exitY=-0.114;exitDx=0;exitDy=0;exitPerimeter=0;entryX=-0.003;entryY=-0.135;entryDx=0;entryDy=0;entryPerimeter=0;" parent="1" source="EVvFnJnLSGe2XGKSUcR7-4" target="zJV512reWy2KxUJ79HiW-63" edge="1">
          <mxGeometry width="160" relative="1" as="geometry">
            <mxPoint x="-130" y="65" as="sourcePoint" />
            <mxPoint x="-1000" y="-420" as="targetPoint" />
            <Array as="points">
              <mxPoint x="-1000" y="60" />
              <mxPoint x="-1000" y="-414" />
            </Array>
          </mxGeometry>
        </mxCell>
      </root>
    </mxGraphModel>
  </diagram>
</mxfile>
